<svg xmlns="http://www.w3.org/2000/svg" viewBox="0 0 48 48" fill="none">
  <path d="M6 14a4 4 0 0 1 4-4h27a4 4 0 0 1 4 4v23a4 4 0 0 1-4 4H10a4 4 0 0 1-4-4z" stroke="currentColor" stroke-width="2" stroke-linejoin="round"/>
  <path d="M6 18h35M30 29h7" stroke="currentColor" stroke-width="2" stroke-linecap="round"/>
  <circle cx="19" cy="29" r="6" stroke="currentColor" stroke-width="2"/>
  <path d="M19 25.5v7M21 27.5c-.5-.7-1.2-1-2-1-1.2 0-2 .6-2 1.5 0 1 .8 1.4 2 1.7 1.3.3 2 .7 2 1.7s-.8 1.6-2 1.6c-.9 0-1.7-.4-2.2-1" stroke="currentColor" stroke-width="1.5" stroke-linecap="round"/>
</svg>
