<svg width="160" height="160" viewBox="0 0 160 160" fill="none" xmlns="http://www.w3.org/2000/svg">
<path d="M77.7 130.6C105.7 130.6 128.4 107.9 128.4 79.8C128.4 51.7 105.6 29 77.7 29C49.7 29 27 51.7 27 79.8C27 107.9 49.7 130.6 77.7 130.6Z" fill="#F1F3FA" stroke="#D5DAE5" stroke-width="2" stroke-miterlimit="10"/>
<path d="M92.4 52.7998L107.7 107.8C108.2 109.7 107.1 111.6 105.2 112.1L51.3 126.4C49.4 126.9 47.5 125.8 47 123.9L28.2 52.8998C27.7 50.9998 28.8 49.0998 30.7 48.5998L69.7 38.2998L92.4 52.7998Z" fill="white" stroke="#D5DAE5" stroke-width="2" stroke-miterlimit="10"/>
<path d="M91.6 87.5997L62.5 95.2997L59.3 96.0997L49.6 98.6997C49.2 98.7997 48.9 99.2997 49.1 99.7997C49.2 100.3 49.7 100.6 50.1 100.5L59.8 97.8997L63 97.0997L92.1 89.3997C92.5 89.2997 92.8 88.7997 92.6 88.2997C92.5 87.7997 92 87.4997 91.6 87.5997Z" fill="#D5DAE5"/>
<path d="M89.7001 80.7997L78.9001 83.5997L75.2001 84.5997L47.9001 91.8997C47.5001 91.9997 47.2001 92.4997 47.4001 92.9997C47.5001 93.4997 48.0001 93.7997 48.4001 93.6997L75.8001 86.3997L79.5001 85.3997L90.3001 82.5997C90.7001 82.4997 91.0001 81.9997 90.8001 81.4997C90.6001 81.0997 90.1001 80.6997 89.7001 80.7997Z" fill="#D5DAE5"/>
<path d="M88.0999 73.8998L85.2999 74.5998L82.4999 75.2998L45.9999 84.9998C45.5999 85.0998 45.2999 85.5998 45.4999 86.0998C45.5999 86.5998 46.0999 86.8998 46.4999 86.7998L82.9999 77.0998L86.0999 76.2998L88.5999 75.5998C88.9999 75.4998 89.2999 74.9998 89.0999 74.4998C88.9999 74.0998 88.5999 73.7998 88.0999 73.8998Z" fill="#D5DAE5"/>
<path d="M71.2 109.3L69.2 109.8C68.8 109.9 68.3 109.6 68.2 109.1C68.1 108.6 68.3 108.1 68.7 108L70.7 107.5C71.1 107.4 71.6 107.7 71.7 108.2C71.8 108.8 71.6 109.2 71.2 109.3Z" fill="#D5DAE5"/>
<path d="M65.0999 110.9L53.5999 113.9C53.1999 114 52.6999 113.7 52.5999 113.2C52.4999 112.7 52.6999 112.2 53.0999 112.1L64.5999 109.1C64.9999 109 65.4999 109.3 65.5999 109.8C65.7999 110.3 65.5999 110.8 65.0999 110.9Z" fill="#D5DAE5"/>
<path d="M86.7 66.9999L77.6 69.3999L75.4 69.9999L44.3 78.1999C43.9 78.2999 43.6 78.7999 43.8 79.2999C43.9 79.7999 44.4 80.0999 44.8 79.9999L75.8 71.8999L78 71.2999L87 68.8999C87.5 68.7999 87.7 68.2999 87.6 67.6999C87.6 67.2999 87.1 66.8999 86.7 66.9999Z" fill="#D5DAE5"/>
<path d="M65.2 51.9L39.4 58.7C38.8 58.9 38.2 58.5 38 57.9C37.8 57.3 38.2 56.7 38.8 56.5L64.6 49.7C65.2 49.5 65.8 49.9 66 50.5C66.2 51.1 65.8 51.7 65.2 51.9Z" fill="#D5DAE5"/>
<path d="M51 62.2999L41.1 64.8999C40.5 65.0999 39.9 64.6999 39.7 64.0999C39.5 63.4999 39.9 62.8999 40.5 62.6999L50.3 60.0999C50.9 59.8999 51.5 60.2999 51.7 60.8999C51.9 61.4999 51.5 62.0999 51 62.2999Z" fill="#D5DAE5"/>
<path d="M69.7 38.2998L73.7 53.4998C74.3 55.5998 76.6 56.8998 78.7 56.2998L92.4 52.7998" fill="#D5DAE5"/>
<path d="M132.8 68.2999L123.6 124.7C123.3 126.6 121.4 127.9 119.5 127.5L64.6999 117.9C62.7999 117.6 61.4999 115.7 61.7999 113.8L74.4999 41.4999C74.7999 39.5999 76.6999 38.2999 78.5999 38.6999L118.4 45.6999L132.8 68.2999Z" fill="white" stroke="#D5DAE5" stroke-width="2" stroke-miterlimit="10"/>
<path d="M117.5 99.5999L87.8998 94.3999L84.6998 93.7999L74.7998 92.0999C74.3998 91.9999 73.8998 92.3999 73.8998 92.8999C73.7998 93.3999 74.0998 93.8999 74.4998 93.9999L84.3998 95.6999L87.5997 96.2999L117.2 101.5C117.6 101.6 118.1 101.2 118.1 100.7C118.2 100.2 118 99.6999 117.5 99.5999Z" fill="#D5DAE5"/>
<path d="M118.7 92.7L107.7 90.8L104 90.1L76.0998 85.2C75.6998 85.1 75.1998 85.5 75.1998 86C75.0998 86.5 75.3998 87 75.7998 87.1L103.7 92L107.4 92.7L118.4 94.6C118.8 94.7 119.3 94.3 119.3 93.8C119.4 93.3 119.1 92.8 118.7 92.7Z" fill="#D5DAE5"/>
<path d="M120.1 85.7L117.2 85.2L114.3 84.7L77.0998 78.2C76.6998 78.1 76.1998 78.5 76.1998 79C76.0998 79.5 76.3998 80 76.7998 80.1L114 86.6L117.2 87.2L119.7 87.6C120.1 87.7 120.6 87.3 120.6 86.8C120.8 86.3 120.6 85.8 120.1 85.7Z" fill="#D5DAE5"/>
<path d="M89.8999 110.8L87.8999 110.5C87.4999 110.4 87.1999 109.9 87.2999 109.4C87.3999 108.9 87.7999 108.5 88.1999 108.6L90.1999 108.9C90.5999 109 90.8999 109.5 90.7999 110C90.6999 110.6 90.2999 110.8 89.8999 110.8Z" fill="#D5DAE5"/>
<path d="M83.7999 109.7L72.0998 107.7C71.6998 107.6 71.3999 107.1 71.4999 106.6C71.5999 106.1 71.9999 105.7 72.3999 105.8L84.0998 107.8C84.4998 107.9 84.7999 108.4 84.6999 108.9C84.5999 109.5 84.1999 109.8 83.7999 109.7Z" fill="#D5DAE5"/>
<path d="M121.7 78.9001L112.4 77.3001L110.1 76.9001L78.3999 71.3001C77.9999 71.2001 77.4999 71.6001 77.4999 72.1001C77.3999 72.6001 77.6998 73.1001 78.0998 73.2001L109.8 78.8001L112.1 79.2001L121.3 80.8001C121.8 80.9001 122.2 80.5001 122.3 80.0001C122.4 79.5001 122.1 79.0001 121.7 78.9001Z" fill="#D5DAE5"/>
<path d="M108.6 56.2001L82.2998 51.6001C81.6998 51.5001 81.2998 50.9001 81.3998 50.3001C81.4998 49.7001 82.0998 49.3001 82.6998 49.4001L109 54.0001C109.6 54.1001 110 54.7001 109.9 55.3001C109.8 55.8001 109.2 56.3001 108.6 56.2001Z" fill="#D5DAE5"/>
<path d="M91.3 59.5998L81.2 57.7998C80.6 57.6998 80.2 57.0998 80.3 56.4998C80.4 55.8998 81 55.4998 81.6 55.5998L91.6 57.3998C92.2 57.4998 92.6 58.0998 92.5 58.6998C92.4 59.2998 91.8 59.6998 91.3 59.5998Z" fill="#D5DAE5"/>
<path d="M118.3 45.6997L115.6 61.1997C115.2 63.3997 116.8 65.4997 119 65.8997L132.8 68.2997" fill="#D5DAE5"/>
<path d="M95.1 119.4C107.416 119.4 117.4 109.416 117.4 97.0998C117.4 84.7838 107.416 74.7998 95.1 74.7998C82.7841 74.7998 72.8 84.7838 72.8 97.0998C72.8 109.416 82.7841 119.4 95.1 119.4Z" fill="white"/>
<path d="M127.441 131.54C126.575 131.54 125.71 131.194 125.017 130.415L110.562 115.96L110.043 116.306C105.368 119.768 99.9152 121.586 94.3755 121.586C87.7104 121.586 81.0454 118.903 76.1115 114.229C70.918 109.295 68.0615 102.63 68.0615 95.3587C68.0615 80.9034 79.8336 69.1313 94.2889 69.1313C104.157 69.1313 112.813 74.3249 117.487 83.1539C122.074 91.8964 121.468 102.11 115.842 110.333L115.496 110.853L130.038 125.395C131.509 126.866 131.163 128.338 130.903 129.117C130.211 130.502 128.826 131.54 127.441 131.54ZM94.2889 76.3157C83.7287 76.3157 75.2459 84.8851 75.2459 95.3587C75.2459 107.304 85.0271 114.488 94.5486 114.488C100.348 114.488 105.628 111.892 109.35 107.217C113.938 101.504 114.717 93.8007 111.514 87.1356C108.225 80.4706 101.646 76.3157 94.2889 76.3157Z" fill="#D5DAE5" stroke="#AAB2C5" stroke-width="2" stroke-miterlimit="10"/>
<path d="M93 100.7C92.9 100.3 92.9 99.8999 92.9 99.3999C92.9 97.6999 93.6 96.1999 95.4 94.8999L96.9 93.7999C97.8 93.0999 98.2001 92.2999 98.2001 91.2999C98.2001 89.8999 97.2 88.4999 95.1 88.4999C92.9 88.4999 91.9 90.2999 91.9 91.9999C91.9 92.3999 91.9 92.6999 92 92.9999L88 92.8999C87.9 92.4999 87.8 91.9999 87.8 91.4999C87.8 88.0999 90.3 84.8999 95 84.8999C99.8 84.8999 102.4 87.9999 102.4 91.0999C102.4 93.5999 101.1 95.2999 99.3 96.5999L98 97.4999C96.9 98.2999 96.3 99.2999 96.3 100.5V100.7H93ZM94.7001 102.7C96.1 102.7 97.2001 103.8 97.2001 105.2C97.2001 106.6 96.1 107.7 94.7001 107.7C93.3001 107.7 92.2001 106.6 92.2001 105.2C92.3001 103.9 93.3001 102.7 94.7001 102.7Z" fill="#AAB2C5"/>
</svg>
